<?xml version="1.0" encoding="UTF-8" standalone="no"?>
<svg
   viewBox="0 0 10 10"
   class="logo"
   version="1.1"
   id="svg2"
   sodipodi:docname="logo.svg"
   xmlns:inkscape="http://www.inkscape.org/namespaces/inkscape"
   xmlns:sodipodi="http://sodipodi.sourceforge.net/DTD/sodipodi-0.dtd"
   xmlns="http://www.w3.org/2000/svg"
   xmlns:svg="http://www.w3.org/2000/svg">
  <defs
     id="defs2" />
  <sodipodi:namedview
     id="namedview2"
     pagecolor="#ffffff"
     bordercolor="#000000"
     borderopacity="0.25"
     inkscape:showpageshadow="2"
     inkscape:pageopacity="0.0"
     inkscape:pagecheckerboard="0"
     inkscape:deskcolor="#d1d1d1" />
  <style
     id="style1">
  text {
    fill: white;
    font-size: 10px;
  }

  .sup {
    font-size:6px;
  }
</style>
  <path
     d="m 4.35,3.54 q 0.15,0 0.32,0.02 0.18,0.01 0.31,0.04 L 4.87,4.41 Q 4.74,4.38 4.58,4.36 4.43,4.34 4.29,4.34 3.88,4.34 3.52,4.57 3.16,4.79 2.94,5.2 2.73,5.6 2.73,6.14 V 9 H 1.85 V 3.64 h 0.72 l 0.1,0.98 H 2.71 Q 2.97,4.18 3.38,3.86 3.79,3.54 4.35,3.54 Z"
     id="text1"
     style="font-size:10px;fill:#ffffff"
     aria-label="r" />
  <path
     d="M 7.958,1.718 Q 7.958,2.006 7.85,2.216 7.742,2.426 7.538,2.558 7.34,2.69 7.07,2.744 V 2.768 Q 7.586,2.828 7.838,3.092 8.09,3.356 8.09,3.782 8.09,4.154 7.916,4.448 7.742,4.736 7.376,4.898 7.016,5.06 6.446,5.06 6.11,5.06 5.822,5.006 5.534,4.958 5.27,4.826 V 4.334 q 0.27,0.132 0.582,0.21 0.312,0.072 0.6,0.072 0.576,0 0.828,-0.222 Q 7.538,4.166 7.538,3.77 7.538,3.5 7.394,3.338 7.256,3.17 6.986,3.092 6.716,3.014 6.338,3.014 H 5.924 v -0.45 h 0.42 q 0.354,0 0.588,-0.102 Q 7.172,2.36 7.292,2.18 7.418,1.994 7.418,1.754 7.418,1.442 7.208,1.274 6.998,1.1 6.638,1.1 6.41,1.1 6.224,1.148 6.038,1.19 5.876,1.274 5.72,1.352 5.558,1.46 L 5.294,1.1 Q 5.522,0.92 5.858,0.788 6.2,0.656 6.632,0.656 q 0.672,0 0.996,0.3 0.33,0.3 0.33,0.762 z"
     id="text2"
     class="sup"
     style="font-size:6px;fill:#ffffff"
     aria-label="3" />
</svg>
